<svg width="28" height="28" viewBox="0 0 28 28" fill="none" xmlns="http://www.w3.org/2000/svg">
<path d="M0 2.31091C0 2.07885 0.0921872 1.85629 0.256282 1.69219C0.420376 1.5281 0.642936 1.43591 0.875 1.43591H3.5C3.69518 1.43597 3.88474 1.50128 4.03853 1.62146C4.19232 1.74164 4.30152 1.90978 4.34875 2.09916L5.0575 4.93591H25.375C25.5044 4.93599 25.6322 4.96477 25.7491 5.02018C25.8661 5.07559 25.9693 5.15624 26.0513 5.25634C26.1333 5.35643 26.1921 5.47347 26.2234 5.59902C26.2548 5.72458 26.2579 5.85552 26.2325 5.98241L24.4825 14.7324C24.4442 14.9232 24.3434 15.0958 24.196 15.2229C24.0487 15.35 23.8631 15.4243 23.6687 15.4342L7.224 16.2602L7.72625 18.9359H22.75C22.9821 18.9359 23.2046 19.0281 23.3687 19.1922C23.5328 19.3563 23.625 19.5788 23.625 19.8109C23.625 20.043 23.5328 20.2655 23.3687 20.4296C23.2046 20.5937 22.9821 20.6859 22.75 20.6859H7C6.79601 20.6857 6.59849 20.6143 6.44159 20.4839C6.2847 20.3535 6.17829 20.1724 6.14075 19.9719L3.5175 5.99816L2.8175 3.18591H0.875C0.642936 3.18591 0.420376 3.09373 0.256282 2.92963C0.0921872 2.76554 0 2.54298 0 2.31091ZM5.4285 6.68591L6.8985 14.5242L22.9005 13.7209L24.3075 6.68591H5.4285ZM8.75 20.6859C7.82174 20.6859 6.9315 21.0547 6.27513 21.711C5.61875 22.3674 5.25 23.2577 5.25 24.1859C5.25 25.1142 5.61875 26.0044 6.27513 26.6608C6.9315 27.3172 7.82174 27.6859 8.75 27.6859C9.67826 27.6859 10.5685 27.3172 11.2249 26.6608C11.8813 26.0044 12.25 25.1142 12.25 24.1859C12.25 23.2577 11.8813 22.3674 11.2249 21.711C10.5685 21.0547 9.67826 20.6859 8.75 20.6859ZM21 20.6859C20.0717 20.6859 19.1815 21.0547 18.5251 21.711C17.8687 22.3674 17.5 23.2577 17.5 24.1859C17.5 25.1142 17.8687 26.0044 18.5251 26.6608C19.1815 27.3172 20.0717 27.6859 21 27.6859C21.9283 27.6859 22.8185 27.3172 23.4749 26.6608C24.1313 26.0044 24.5 25.1142 24.5 24.1859C24.5 23.2577 24.1313 22.3674 23.4749 21.711C22.8185 21.0547 21.9283 20.6859 21 20.6859ZM8.75 22.4359C9.21413 22.4359 9.65925 22.6203 9.98744 22.9485C10.3156 23.2767 10.5 23.7218 10.5 24.1859C10.5 24.65 10.3156 25.0952 9.98744 25.4233C9.65925 25.7515 9.21413 25.9359 8.75 25.9359C8.28587 25.9359 7.84075 25.7515 7.51256 25.4233C7.18437 25.0952 7 24.65 7 24.1859C7 23.7218 7.18437 23.2767 7.51256 22.9485C7.84075 22.6203 8.28587 22.4359 8.75 22.4359ZM21 22.4359C21.4641 22.4359 21.9092 22.6203 22.2374 22.9485C22.5656 23.2767 22.75 23.7218 22.75 24.1859C22.75 24.65 22.5656 25.0952 22.2374 25.4233C21.9092 25.7515 21.4641 25.9359 21 25.9359C20.5359 25.9359 20.0908 25.7515 19.7626 25.4233C19.4344 25.0952 19.25 24.65 19.25 24.1859C19.25 23.7218 19.4344 23.2767 19.7626 22.9485C20.0908 22.6203 20.5359 22.4359 21 22.4359Z" fill="white"/>
</svg>
