<svg width="29" height="29" viewBox="0 0 29 29" fill="none" xmlns="http://www.w3.org/2000/svg">
<path d="M14.4998 4.98084L13.2002 3.64503C10.1498 0.5094 4.55643 1.59146 2.53731 5.53365C1.58937 7.38784 1.3755 10.0649 3.10643 13.4815C4.77393 16.7712 8.24306 20.7115 14.4998 25.0035C20.7566 20.7115 24.2239 16.7712 25.8932 13.4815C27.6241 10.0631 27.4121 7.38784 26.4623 5.53365C24.4432 1.59146 18.8498 0.507588 15.7994 3.64321L14.4998 4.98084ZM14.4998 27.1876C-13.2913 8.82334 5.943 -5.50991 14.1808 2.07178C14.2896 2.17207 14.3959 2.27538 14.4998 2.38171C14.6019 2.27471 14.7083 2.17192 14.8188 2.07359C23.0548 -5.51354 42.2909 8.82152 14.4998 27.1876Z" fill="white"/>
</svg>
